<svg id="Layer_2" xmlns="http://www.w3.org/2000/svg" viewBox="0 0 458.64 458.64"><g id="_ëÎÓÈ_1"><path d="m449.23,403.75l-83.97-83.97c56.98-78.82,50.01-189.85-20.92-260.79-78.67-78.67-206.67-78.67-285.34,0-78.67,78.67-78.67,206.67,0,285.34,70.93,70.93,181.96,77.9,260.79,20.92l83.97,83.97c12.56,12.56,32.92,12.56,45.47,0h0c12.56-12.56,12.56-32.92,0-45.47Zm-360.41-89.22c-62.23-62.23-62.23-163.49,0-225.72,62.23-62.23,163.49-62.23,225.72,0,62.23,62.23,62.23,163.49,0,225.72-62.23,62.23-163.49,62.23-225.72,0Z" style="stroke-width:0px;"/></g></svg>