<svg id="Layer_2" xmlns="http://www.w3.org/2000/svg" viewBox="0 0 85.04 85.04"><g id="Capa_2"><path d="m60.34,0c-3.72-.05-7.69,2.49-10.62,10.73-.18.51-.85.62-1.31.37-3.71-1.98-7.95-2.05-11.8,0-.46.25-1.07.12-1.31-.37-2.77-5.62-5.6-8.3-8.7-8.89-1.33-.29-1.79.34-1.91.81-.14.52-.55,1.46,1.07,2.13,4.56,1.17,8.22,8.01,7.11,9.24-3.03,3.36-3.66,6.78-3.66,10.88l.02-.02s-.01.01-.02.02h26.62s0,0-.01-.01h.02c0-4.04-.59-7.46-3.66-10.87-.42-.46-.48-1.16-.14-1.69,2.36-3.78,3.88-9.95,8.94-9.54,1.61-.1,1.52-.78,1.42-1.39C62.3.88,61.74,0,60.34,0Z" style="fill-rule:evenodd; stroke-width:0px;"/><path d="m79.76,27.33c-10.77-3.89-9.09-4.68-17.81,3.66-.23.22-.48.39-.75.5-1.11-1.84-2.37-3.5-3.74-4.97h-14.4v58.52c9.31-.28,17.33-7.7,21.18-18.39,1.93-.3,3.78.31,4.73,2.18l6.97,12.17c1.28,2.53,4.93.52,3.64-2.04l-6.97-12.17c-1.43-2.83-4.22-4.49-7.06-4.59.73-3.13,1.13-6.46,1.13-9.92,0-.28,0-.55,0-.83,1.95-.24,9.83-.05,16.31-.05,1.14,0,2.06-.98,2.06-2.17s-.92-2.17-2.06-2.17h-16.45c-.05,0-.1,0-.16,0-.48-4.08-1.52-7.92-3.01-11.35.2-.31.46-.63.81-.96,7.74-7.41,5.15-6.81,14.3-3.28,2.55.98,3.87-3.19,1.29-4.13Z" style="fill-rule:evenodd; stroke-width:0px;"/><path d="m41.52,26.52h-13.96c-1.39,1.49-2.66,3.17-3.78,5.03-.23-.14-.46-.32-.71-.56-8.37-8.02-6.83-7.08-17.52-3.6-2.62.85-1.28,5.03,1.29,4.13l5.24-2.21c1.4-.48,2.95-.14,4.04.91,3.09,2.96,4.72,4.48,5.5,5.57-1.47,3.41-2.49,7.22-2.97,11.26-.06,0-.12,0-.18,0H2.05c-2.73,0-2.73,4.35,0,4.35,6.41,0,14.33-.19,16.31,0,0,.29,0,.58,0,.87,0,3.44.39,6.76,1.11,9.87-6.16-.06-9.83,8.9-13.67,16.5-1.28,2.54,2.36,4.58,3.64,2.04l6.62-11.86c.96-1.9,2.81-2.5,4.72-2.2,3.78,10.54,11.61,17.89,20.74,18.4V26.52Z" style="fill-rule:evenodd; stroke-width:0px;"/></g></svg>