<svg id="Layer_2" xmlns="http://www.w3.org/2000/svg" viewBox="0 0 100 90.04"><g id="Layer_1-2"><path d="m42.09,38.02c-.86,0-1.56.7-1.56,1.56v31.12c-1.79,2.84-4.96,4.73-8.57,4.73-4.33,0-8.11-2.36-10.13-5.86v-26.87c0-.86-.7-1.56-1.56-1.56s-1.56.7-1.56,1.56v26.44c-1.79,2.84-4.96,4.73-8.57,4.73-5.6,0-10.13-4.54-10.13-10.13V20.26s2.26-11.62,14.62-11.62c1.69,0,3.56.22,5.64.71,0,0,4.47-7.48,12.72-7.48,2.65,0,5.69.77,9.1,2.81C42.09,4.68,47.2,0,54.12,0c3.46,0,7.38,1.17,11.34,4.68,0,0,1.89-.32,4.61-.32,6.49,0,17.68,1.84,18.78,14.35v48.15c0,6.46-5.23,11.69-11.69,11.69-4.36,0-8.15-2.38-10.16-5.92.02-.1.03-.21.03-.32v-35.85c0-.86-.7-1.56-1.56-1.56s-1.56.7-1.56,1.56v35.24c-1.91,3.17-5.38,5.29-9.35,5.29-4.22,0-8.64-2.39-10.91-5.9v-31.51c0-.86-.7-1.56-1.56-1.56Zm45.21,47.33c-10.73-1.23-23.28,1.55-32.45,3.58-1.68.37-3.26.72-4.65,1.01-.33.07-.66.1-.98.1-1.34,0-2.63-.56-3.56-1.58-1.16-1.27-1.55-3-1.06-4.64.62-2.05,1.45-3.94,2.4-5.67,2.37,1.26,5,1.95,7.57,1.95,4.17,0,7.92-1.83,10.5-4.73,2.68,3.8,7.11,6.29,12.11,6.29,8.17,0,14.81-6.64,14.81-14.81v-29.9c1.03,2.77,2.17,6,3.26,9.48,4.86,15.45,6.01,26.48,3.43,32.79-1.32,3.24-4.37,6.92-11.37,6.13Z" style="stroke-width:0px;"/></g></svg>