<?xml version="1.0" encoding="UTF-8"?><svg id="Layer_2" xmlns="http://www.w3.org/2000/svg" viewBox="0 0 100 100"><g id="Layer_1-2"><path d="m13.17,70.42c3.93-5.92,5.37-12.92,4.06-19.69-.44-2.29.48-4.67,2.35-6.07,4.76-3.57,9.49-7.25,14.07-10.82,13.47-10.48,26.36-20.49,39.88-27.97-7.01-3.74-15.01-5.87-23.52-5.87C22.39,0,0,22.39,0,50c0,9.77,2.81,18.88,7.66,26.58,2.15-1.84,4-3.9,5.51-6.17Z" style="stroke-width:0px;"/><path d="m82.87,12.34c-3.02,7.04-8.36,12.42-15.14,14.73-14.43,5.01-28.36,12.81-43.11,21.07-1.26.7-2.52,1.41-3.78,2.12.12.41.22.83.32,1.26l.98-.51c21.11-10.93,41.05-21.26,62.78-23.81l.38-.04-.07.38c-2,11.3-9.54,18.91-19.22,19.39-15.42.8-30.31,5.17-44.12,9.79.03.61.05,1.24.05,1.86,14.23-4.3,29.64-8.26,45.94-8.26,3.27,0,6.53.16,9.71.48l.35.04-.11.34c-2.54,7.92-8.67,12.85-15.99,12.85-.93,0-1.88-.08-2.81-.24-5.89-1.01-11.88-1.5-18.31-1.5-5.93,0-12.18.42-19.12,1.29-.08.57-.17,1.15-.28,1.76,5.14-.47,9.88-.7,14.46-.7,11.16,0,21.36,1.41,31.18,4.3l.33.1-.16.31c-2.5,4.77-6.82,7.51-11.87,7.51-1.68,0-3.36-.31-5.01-.91-9.39-3.47-19.18-5.57-29.92-6.43-.2.66-.41,1.3-.63,1.92,12.04,1.23,22.99,4.02,33.44,8.52l.35.15-.24.29c-2.11,2.61-5.12,4.04-8.47,4.04-1.89,0-3.82-.47-5.56-1.36-6.78-3.51-13.64-6.19-20.96-8.21-.29.61-.6,1.2-.91,1.77,8.89,2.64,17.19,6.28,25.36,11.12l.36.21-.33.26c-1.63,1.28-3.64,1.96-5.81,1.96s-4.29-.67-6.07-1.89c-4.93-3.42-10.04-6.42-15.19-8.92-.3.44-.6.86-.91,1.26,5.83,2.89,11.59,6.41,17.14,10.47l.38.28-.43.21c-1.04.51-2.24.78-3.46.78-2.01,0-3.99-.71-5.42-1.96-3.22-2.83-6.52-5.46-9.82-7.82-.17.19-.36.38-.54.58,1.06,1.2,2.18,2.34,3.35,3.43,1.37,1.11,2.73,2.25,4.08,3.43,8.35,6.26,18.73,9.98,29.97,9.98,27.61,0,50-22.39,50-50,0-15.03-6.64-28.49-17.13-37.66Z" style="stroke-width:0px;"/></g></svg>