<svg id="Layer_2" xmlns="http://www.w3.org/2000/svg" viewBox="0 0 100 100"><g id="Layer_1-2"><path d="m95.54,82.47c-3.99-4.9-10.02-12.32-12.77-23.45-2.47-10-2.81-15.46-3.2-21.78-.2-3.26-.43-6.95-.97-11.63-1.76-15.08-13.52-25.62-28.6-25.62s-26.84,10.53-28.6,25.62c-.54,4.68-.77,8.37-.97,11.63-.39,6.32-.73,11.78-3.2,21.77-2.75,11.13-8.78,18.54-12.77,23.45-3.54,4.35-6.09,7.49-3.22,10.06,1.01.91,2.28,1.37,3.75,1.37,2.81,0,5.82-1.67,8.73-3.28,1.88-1.04,4.01-2.22,5.02-2.22.04,0,.07,0,.08,0,.35.4.28,2.26.24,3.27-.1,2.67-.24,6.33,3.32,7.13.33.07.67.11,1.01.11,2.79,0,4.87-2.45,6.87-4.82,1.28-1.51,3.03-3.59,4.12-3.59.79,0,1.59,2.22,2.12,3.69.93,2.59,2.09,5.81,5.34,5.81s4.59-3.03,5.82-5.71c.57-1.24,1.63-3.54,2.33-3.54s1.76,2.3,2.33,3.54c1.23,2.68,2.63,5.71,5.82,5.71s4.41-3.22,5.34-5.81c.53-1.47,1.33-3.69,2.12-3.69,1.09,0,2.84,2.07,4.12,3.59,2,2.37,4.08,4.82,6.87,4.82.34,0,.68-.04,1.01-.11,3.56-.8,3.42-4.46,3.32-7.13-.04-1.02-.11-2.92.21-3.26,0,0,.03,0,.11,0,1.02,0,3.14,1.18,5.02,2.22,2.91,1.61,5.92,3.28,8.73,3.28,1.48,0,2.74-.46,3.75-1.37,2.87-2.57.31-5.71-3.22-10.06ZM45.19,30.49c-.55,4.07-3.45,7.01-6.48,6.57-3.03-.44-5.05-4.11-4.5-8.18.55-4.07,3.45-7.02,6.48-6.57,3.03.44,5.05,4.11,4.5,8.18Zm16.11,6.57c-3.03.44-5.94-2.5-6.49-6.57-.55-4.07,1.47-7.74,4.5-8.18,3.03-.44,5.93,2.5,6.48,6.57.55,4.07-1.47,7.74-4.5,8.18Z" style="stroke-width:0px;"/></g></svg>