<?xml version="1.0" encoding="UTF-8"?><svg id="Layer_2" xmlns="http://www.w3.org/2000/svg" viewBox="0 0 100 100"><g id="Layer_1-2"><polygon points="47.03 44.94 43.82 50.24 47.19 55.22 53.45 55.22 56.34 50.24 53.29 44.94 47.03 44.94" style="stroke-width:0px;"/><path d="m50,0C22.39,0,0,22.39,0,50s22.39,50,50,50,50-22.39,50-50S77.61,0,50,0Zm33.81,42.05v4.02l-3.21,1.77-9.48-5.62-6.56,4.18,6.35,3.94-6.54,3.77,6.74,3.53,9.48-5.3,3.05,2.17v3.81s-5.94,3.33-5.94,3.33l9.48,5.62v4.42l-4.01,1.85-9.32-5.3v7.03l-3.33,1.85-3.29-1.85v-10.66s-6.87-3.91-6.87-3.91v7.39l-6.58-4.01v7.39l9.31,5.3v4.18l-3.21,1.61-6.26-3.53v11.24l-3.61,2.33-3.61-2.33v-11.24l-6.26,3.53-3.21-1.85v-3.93l9.32-5.3v-7.39l-6.75,4.34v-7.83l-6.46,3.71v10.62s-3.55,2.18-3.55,2.18l-3-1.98v-7.11s-9.81,5.54-9.81,5.54l-4.17-1.77v-4.5l10.29-5.62-6.44-3.22v-4.14l3.65-1.98,9.25,5.42,6.4-3.69-.16-.11-6.54-3.77,6.35-3.94-6.4-3.69-9.25,5.42-3.47-1.72v-4.1l6.26-3.51-9.95-5.4v-4.5l3.83-1.98,9.82,5.68v-7.23l2.98-2,3.62,2.09v10.83s6.57,3.77,6.57,3.77v-7.66s6.91,3.73,6.91,3.73v-7.39l-9.32-5.3v-3.93l3.21-1.85,6.26,3.53v-11.24l3.61-2.33,3.61,2.33v11.24l6.5-3.61,3.29,2.17v3.53l-9.64,5.46v7.39l6.58-4.02v8.03l6.79-3.69v-11.56l3.29-1.53,3.41,1.53v7.39l10.12-5.46,3.53,2.17v4.18l-9.88,5.62,6.18,3.45Z" style="stroke-width:0px;"/></g></svg>