<?xml version="1.0" encoding="UTF-8"?><svg id="Layer_2" xmlns="http://www.w3.org/2000/svg" viewBox="0 0 100 100"><g id="Layer_1-2"><path d="m49.26,47.46v-6.57c-.06.02-2.07,3.04-2.18,4.5-.13,1.81.54,3.41,2.18,2.08Z" style="stroke-width:0px;"/><path d="m52.88,45.38c-.11-1.45-2.11-4.47-2.18-4.5v6.57c1.63,1.34,2.31-.27,2.18-2.08Z" style="stroke-width:0px;"/><path d="m64.97,38.28c.43-1.72-.12-4.42-2.14-5.79-3.36-2.29-8.83-1.89-9.53.36-.09.29-.25,1.88.16,3.48,1.93,7.39,8.81,10.02,11.5,1.95Z" style="stroke-width:0px;"/><path d="m50,0C22.39,0,0,22.39,0,50s22.39,50,50,50,50-22.39,50-50S77.61,0,50,0Zm-.36,10c13.35,0,24.17,10.33,24.17,23.07,0,8.08-4.36,15.2-10.95,19.31v7.45c0,1.22-.99,2.21-2.21,2.21h-3.02c-1.22,0-2.21-.99-2.21-2.21v-2.67c0-.57-.46-1.02-1.02-1.02h0c-.57,0-1.02.46-1.02,1.02v2.67c0,1.22-.99,2.21-2.21,2.21h-3.02c-1.22,0-2.21-.99-2.21-2.21v-2.67c0-.57-.46-1.02-1.02-1.02s-1.02.46-1.02,1.02v2.67c0,1.22-.99,2.21-2.21,2.21h-3.02c-1.22,0-2.21-.99-2.21-2.21v-7.45c-6.6-4.12-10.95-11.23-10.95-19.31,0-12.74,10.82-23.07,24.17-23.07Zm21.38,67.14c.27-.17.56-.35.89-.53,1.03-.59,2.95-1.2,4.52-1.39,1.02-.13,2.12-.12,3.02.38.94.52,1.53,1.54,1.72,2.6.09.48.09.99-.05,1.45-.41,1.34-1.94,2.08-2.42,3.4-.47,1.32.24,2.81-.12,4.16-.35,1.32-1.64,2.18-2.94,2.57-.76.23-1.58.33-2.33.1-1.3-.41-2.1-1.7-2.71-2.92-.57-1.15-1.09-2.33-1.55-3.53l-19.07-7.33-19.11,7.22c-.47,1.2-.99,2.37-1.57,3.52-.62,1.22-1.42,2.51-2.72,2.9-.75.23-1.57.12-2.33-.11-1.3-.4-2.59-1.27-2.93-2.59-.35-1.35.37-2.84-.1-4.16-.47-1.32-1.99-2.07-2.4-3.41-.14-.47-.13-.97-.04-1.46.19-1.06.8-2.07,1.74-2.59.9-.5,2-.5,3.02-.36,1.57.2,3.49.83,4.51,1.42.32.19.61.36.88.54l11.83-4.47-11.59-4.45c-1.32.69-2.67,1.32-4.06,1.86-1.27.5-2.72.93-3.96.36-.72-.33-1.25-.96-1.67-1.63-.71-1.16-1.09-2.67-.47-3.88.64-1.24,2.17-1.88,2.7-3.17.53-1.3-.11-2.87.48-4.14.21-.44.55-.81.94-1.11.85-.66,1.97-1.02,3.02-.78,1.01.23,1.82.96,2.5,1.74,1.04,1.2,2.05,2.94,2.42,4.06.05.15.09.29.13.43l18.8,7.22,18.84-7.12c.05-.14.09-.28.14-.43.38-1.12,1.4-2.85,2.44-4.05.68-.78,1.5-1.5,2.51-1.73,1.05-.23,2.17.13,3.01.79.38.3.73.67.93,1.12.58,1.27-.07,2.84.46,4.14.52,1.3,2.05,1.94,2.68,3.18.62,1.21.23,2.72-.49,3.88-.41.67-.96,1.3-1.67,1.62-1.24.57-2.69.13-3.96-.38-1.38-.55-2.73-1.19-4.05-1.88l-11.62,4.39,11.81,4.54Z" style="stroke-width:0px;"/><path d="m45.81,36.33c.42-1.6.25-3.19.16-3.48-.7-2.25-6.17-2.65-9.53-.36-2.01,1.37-2.57,4.07-2.14,5.79,2.69,8.06,9.57,5.44,11.5-1.95Z" style="stroke-width:0px;"/></g></svg>