<svg id="Layer_2" xmlns="http://www.w3.org/2000/svg" viewBox="0 0 99 100.08"><g id="Layer_1-2"><path d="m54.11,48.52c-2.17,0-3.93-1.76-3.93-3.93,0-2,1.49-3.63,3.42-3.88-1.39-.69-2.95-1.09-4.61-1.09-5.73,0-10.39,4.66-10.39,10.39s4.66,10.39,10.39,10.39,10.39-4.66,10.39-10.39c0-1.86-.5-3.61-1.36-5.12-.15,2.03-1.83,3.64-3.9,3.64Z" style="fill:#010101; stroke-width:0px;"/><path d="m49.11,24.94C27.7,24.94,7.57,41.71.96,47.81c-1.28,1.18-1.28,3.19,0,4.37,6.62,6.1,26.75,22.88,48.16,22.88s41.39-16.79,47.94-22.89c1.26-1.18,1.26-3.18,0-4.35-6.54-6.1-26.52-22.89-47.94-22.89Zm-.12,42.86c-9.81,0-17.79-7.98-17.79-17.79s7.98-17.79,17.79-17.79,17.79,7.98,17.79,17.79-7.98,17.79-17.79,17.79Z" style="fill:#010101; stroke-width:0px;"/><path d="m49.01,83.72c-1.2,0-2.17.97-2.17,2.17v12.02c0,1.2.97,2.17,2.17,2.17s2.17-.97,2.17-2.17v-12.02c0-1.2-.97-2.17-2.17-2.17Z" style="fill:#010101; stroke-width:0px;"/><path d="m73.76,80.82c-.6-1.04-1.93-1.39-2.96-.79s-1.39,1.93-.79,2.96l5.09,8.8c.4.7,1.13,1.08,1.88,1.08.37,0,.74-.09,1.08-.29,1.04-.6,1.39-1.93.79-2.96l-5.09-8.8Z" style="fill:#010101; stroke-width:0px;"/><path d="m97.02,72.3l-6.21-4.14c-1-.67-2.34-.4-3.01.6-.67,1-.4,2.34.6,3.01l6.21,4.14c.37.25.79.37,1.2.37.7,0,1.39-.34,1.81-.97.67-1,.4-2.34-.6-3.01Z" style="fill:#010101; stroke-width:0px;"/><path d="m27.22,80.02c-1.04-.6-2.36-.24-2.96.79l-5.09,8.8c-.6,1.04-.24,2.36.79,2.96.34.2.72.29,1.08.29.75,0,1.48-.39,1.88-1.08l5.09-8.8c.6-1.04.24-2.36-.79-2.96Z" style="fill:#010101; stroke-width:0px;"/><path d="m7.19,68.16l-6.21,4.14c-1,.67-1.27,2.01-.6,3.01.42.63,1.11.97,1.81.97.41,0,.83-.12,1.2-.37l6.21-4.14c1-.67,1.27-2.01.6-3.01-.67-1-2.01-1.27-3.01-.6Z" style="fill:#010101; stroke-width:0px;"/><path d="m50.01,16.36c1.2,0,2.17-.97,2.17-2.17V2.17c0-1.2-.97-2.17-2.17-2.17s-2.17.97-2.17,2.17v12.02c0,1.2.97,2.17,2.17,2.17Z" style="fill:#010101; stroke-width:0px;"/><path d="m71.79,20.05c.34.2.72.29,1.08.29.75,0,1.48-.39,1.88-1.08l5.09-8.8c.6-1.04.24-2.36-.79-2.96-1.04-.6-2.36-.24-2.96.79l-5.09,8.8c-.6,1.04-.24,2.36.79,2.96Z" style="fill:#010101; stroke-width:0px;"/><path d="m98.63,24.77c-.67-1-2.01-1.27-3.01-.6l-6.21,4.14c-1,.67-1.27,2.01-.6,3.01.42.63,1.11.97,1.81.97.41,0,.83-.12,1.2-.37l6.21-4.14c1-.67,1.27-2.01.6-3.01Z" style="fill:#010101; stroke-width:0px;"/><path d="m25.27,19.26c.4.7,1.13,1.08,1.88,1.08.37,0,.74-.09,1.08-.29,1.04-.6,1.39-1.93.79-2.96l-5.09-8.8c-.6-1.04-1.93-1.39-2.96-.79-1.04.6-1.39,1.93-.79,2.96l5.09,8.8Z" style="fill:#010101; stroke-width:0px;"/><path d="m1.99,27.78l6.21,4.14c.37.25.79.37,1.2.37.7,0,1.39-.34,1.81-.97.67-1,.4-2.34-.6-3.01l-6.21-4.14c-1-.67-2.34-.4-3.01.6-.67,1-.4,2.34.6,3.01Z" style="fill:#010101; stroke-width:0px;"/></g></svg>